<svg width="107" height="108" viewBox="0 0 107 108" fill="none" xmlns="http://www.w3.org/2000/svg">
<rect x="0.5" y="0.5" width="106" height="107" rx="4.5" stroke="#CFD8DC" stroke-dasharray="3 3"/>
<path d="M25.31 24H22.31M25.55 24L27.71 31.84C27.8903 32.4582 28.2647 33.0021 28.778 33.3911C29.2912 33.78 29.916 33.9936 30.56 34H39.3V24H25.55ZM32.31 37.5C32.31 38.3284 31.6384 39 30.81 39C29.9816 39 29.31 38.3284 29.31 37.5C29.31 36.6716 29.9816 36 30.81 36C31.6384 36 32.31 36.6716 32.31 37.5ZM39.31 37.5C39.31 38.3284 38.6384 39 37.81 39C36.9816 39 36.31 38.3284 36.31 37.5C36.31 36.6716 36.9816 36 37.81 36C38.6384 36 39.31 36.6716 39.31 37.5Z" stroke="#1C1C1E" stroke-linecap="round" stroke-linejoin="round"/>
<path d="M33.1 27.5C35.4472 27.5 37.35 25.5972 37.35 23.25C37.35 20.9028 35.4472 19 33.1 19C30.7528 19 28.85 20.9028 28.85 23.25C28.85 25.5972 30.7528 27.5 33.1 27.5Z" fill="#FF453A"/>
<path d="M25.31 73H22.31M25.55 73L27.71 80.84C27.8903 81.4582 28.2647 82.0021 28.778 82.3911C29.2912 82.78 29.916 82.9936 30.56 83H39.3V73H25.55ZM32.31 86.5C32.31 87.3284 31.6384 88 30.81 88C29.9816 88 29.31 87.3284 29.31 86.5C29.31 85.6716 29.9816 85 30.81 85C31.6384 85 32.31 85.6716 32.31 86.5ZM39.31 86.5C39.31 87.3284 38.6384 88 37.81 88C36.9816 88 36.31 87.3284 36.31 86.5C36.31 85.6716 36.9816 85 37.81 85C38.6384 85 39.31 85.6716 39.31 86.5Z" stroke="white" stroke-linecap="round" stroke-linejoin="round"/>
<path d="M33.1 76.5C35.4472 76.5 37.35 74.5972 37.35 72.25C37.35 69.9028 35.4472 68 33.1 68C30.7528 68 28.85 69.9028 28.85 72.25C28.85 74.5972 30.7528 76.5 33.1 76.5Z" fill="#FF453A"/>
<path d="M69.31 24H66.31M69.55 24L71.71 31.84C71.8903 32.4582 72.2647 33.0021 72.778 33.3911C73.2912 33.78 73.916 33.9936 74.56 34H83.3V24H69.55ZM76.31 37.5C76.31 38.3284 75.6384 39 74.81 39C73.9816 39 73.31 38.3284 73.31 37.5C73.31 36.6716 73.9816 36 74.81 36C75.6384 36 76.31 36.6716 76.31 37.5ZM83.31 37.5C83.31 38.3284 82.6384 39 81.81 39C80.9816 39 80.31 38.3284 80.31 37.5C80.31 36.6716 80.9816 36 81.81 36C82.6384 36 83.31 36.6716 83.31 37.5Z" stroke="#1C1C1E" stroke-linecap="round" stroke-linejoin="round"/>
<path d="M69.31 73H66.31M69.55 73L71.71 80.84C71.8903 81.4582 72.2647 82.0021 72.778 82.3911C73.2912 82.78 73.916 82.9936 74.56 83H83.3V73H69.55ZM76.31 86.5C76.31 87.3284 75.6384 88 74.81 88C73.9816 88 73.31 87.3284 73.31 86.5C73.31 85.6716 73.9816 85 74.81 85C75.6384 85 76.31 85.6716 76.31 86.5ZM83.31 86.5C83.31 87.3284 82.6384 88 81.81 88C80.9816 88 80.31 87.3284 80.31 86.5C80.31 85.6716 80.9816 85 81.81 85C82.6384 85 83.31 85.6716 83.31 86.5Z" stroke="white" stroke-linecap="round" stroke-linejoin="round"/>
</svg>
